<?xml version="1.0" encoding="utf-8"?><svg viewBox="0 0 14 14" xmlns="http://www.w3.org/2000/svg" xmlns:xlink="http://www.w3.org/1999/xlink"><style>:root>svg{display:none}:root>svg:target{display:block}</style><svg viewBox="0 0 6 4" id="ic-drop-down-arrow" xmlns="http://www.w3.org/2000/svg"><path d="M3.403 3.813a.529.529 0 0 1-.806 0L.107.77C-.151.456.087 0 .51 0h4.98c.423 0 .66.456.403.77l-2.49 3.043Z"/></svg><svg viewBox="0 0 14 14" id="ic-phone" xmlns="http://www.w3.org/2000/svg"><path fill-rule="evenodd" clip-rule="evenodd" d="M7 14A7 7 0 1 0 7 0a7 7 0 0 0 0 14Zm.504-4.758a6.312 6.312 0 0 1-2.746-2.746l.917-.917a.418.418 0 0 0 .104-.425 4.733 4.733 0 0 1-.237-1.487.418.418 0 0 0-.417-.417H3.667a.418.418 0 0 0-.417.417 7.083 7.083 0 0 0 7.083 7.083c.23 0 .417-.188.417-.417V8.88a.418.418 0 0 0-.417-.416c-.516 0-1.02-.084-1.487-.238a.414.414 0 0 0-.425.1l-.917.917Z"/></svg><svg viewBox="0 0 14 14" id="ic-search" xmlns="http://www.w3.org/2000/svg"><path fill-rule="evenodd" clip-rule="evenodd" d="M7 14A7 7 0 1 0 7 0a7 7 0 0 0 0 14Zm.542-5.875 2.333 2.333a.395.395 0 0 0 .292.115.395.395 0 0 0 .291-.115.4.4 0 0 0 .125-.291.383.383 0 0 0-.114-.282L8.125 7.542a2.54 2.54 0 0 0 .542-1.583c0-.758-.262-1.398-.787-1.923-.524-.524-1.165-.786-1.922-.786-.757 0-1.397.262-1.921.786-.525.525-.787 1.165-.787 1.922 0 .757.262 1.398.787 1.922.524.525 1.164.787 1.921.787a2.54 2.54 0 0 0 1.584-.542Zm-.255-.838a1.81 1.81 0 0 1-1.329.546 1.81 1.81 0 0 1-1.328-.546 1.81 1.81 0 0 1-.547-1.329c0-.52.183-.963.547-1.328a1.81 1.81 0 0 1 1.328-.547c.521 0 .964.183 1.329.547.364.365.546.808.546 1.328 0 .521-.182.964-.546 1.329Z"/></svg><svg viewBox="0 0 14 14" id="ic-watch" xmlns="http://www.w3.org/2000/svg"><path fill-rule="evenodd" clip-rule="evenodd" d="M7 14A7 7 0 1 0 7 0a7 7 0 0 0 0 14ZM4.743 3.622a4.062 4.062 0 1 1 4.514 6.756 4.062 4.062 0 0 1-4.514-6.756Zm.347 6.236a3.437 3.437 0 1 0 3.82-5.716 3.437 3.437 0 0 0-3.82 5.716Zm4.318-2.637a.312.312 0 0 0-.22-.534H7.312V4.813a.312.312 0 1 0-.625 0V7A.312.312 0 0 0 7 7.313h2.188a.312.312 0 0 0 .22-.092Z"/></svg></svg>